<svg width="150" height="33" viewBox="0 0 150 33" fill="none" xmlns="http://www.w3.org/2000/svg">
<rect width="150" height="33" rx="5" fill="#295091"/>
<path d="M36.98 23C36.86 23 36.758 22.964 36.674 22.892C36.602 22.808 36.566 22.706 36.566 22.586V10.832C36.566 10.7 36.602 10.598 36.674 10.526C36.758 10.442 36.86 10.4 36.98 10.4H45.854C45.986 10.4 46.088 10.442 46.16 10.526C46.244 10.598 46.286 10.7 46.286 10.832V22.586C46.286 22.706 46.244 22.808 46.16 22.892C46.076 22.964 45.974 23 45.854 23H44.936C44.816 23 44.714 22.964 44.63 22.892C44.558 22.808 44.522 22.706 44.522 22.586V12.02H38.33V22.586C38.33 22.706 38.288 22.808 38.204 22.892C38.12 22.964 38.018 23 37.898 23H36.98ZM53.0156 23.18C51.6956 23.18 50.6696 22.808 49.9376 22.064C49.2176 21.32 48.8336 20.33 48.7856 19.094L48.7676 18.32L48.7856 17.546C48.8336 16.322 49.2236 15.338 49.9556 14.594C50.6876 13.838 51.7076 13.46 53.0156 13.46C54.3236 13.46 55.3436 13.838 56.0756 14.594C56.8076 15.338 57.1976 16.322 57.2456 17.546C57.2576 17.678 57.2636 17.936 57.2636 18.32C57.2636 18.704 57.2576 18.962 57.2456 19.094C57.1976 20.33 56.8076 21.32 56.0756 22.064C55.3556 22.808 54.3356 23.18 53.0156 23.18ZM53.0156 21.794C53.7716 21.794 54.3656 21.554 54.7976 21.074C55.2416 20.594 55.4816 19.904 55.5176 19.004C55.5296 18.884 55.5356 18.656 55.5356 18.32C55.5356 17.984 55.5296 17.756 55.5176 17.636C55.4816 16.736 55.2416 16.046 54.7976 15.566C54.3656 15.086 53.7716 14.846 53.0156 14.846C52.2596 14.846 51.6596 15.086 51.2156 15.566C50.7716 16.046 50.5376 16.736 50.5136 17.636L50.4956 18.32L50.5136 19.004C50.5376 19.904 50.7716 20.594 51.2156 21.074C51.6596 21.554 52.2596 21.794 53.0156 21.794ZM58.9775 24.98C58.8575 24.98 58.7555 24.938 58.6715 24.854C58.5995 24.782 58.5635 24.686 58.5635 24.566V21.974C58.5635 21.854 58.5995 21.758 58.6715 21.686C58.7555 21.602 58.8575 21.56 58.9775 21.56H59.0675C59.5715 21.548 59.9495 21.128 60.2015 20.3C60.4655 19.472 60.5975 18.158 60.5975 16.358V14.054C60.5975 13.934 60.6335 13.838 60.7055 13.766C60.7895 13.682 60.8915 13.64 61.0115 13.64H66.7535C66.8735 13.64 66.9695 13.682 67.0415 13.766C67.1255 13.838 67.1675 13.934 67.1675 14.054V21.524H68.0135C68.1335 21.524 68.2295 21.566 68.3015 21.65C68.3855 21.722 68.4275 21.818 68.4275 21.938V24.566C68.4275 24.686 68.3855 24.782 68.3015 24.854C68.2295 24.938 68.1335 24.98 68.0135 24.98H67.1675C67.0475 24.98 66.9455 24.938 66.8615 24.854C66.7895 24.782 66.7535 24.686 66.7535 24.566V23H60.2375V24.566C60.2375 24.686 60.1955 24.782 60.1115 24.854C60.0395 24.938 59.9435 24.98 59.8235 24.98H58.9775ZM65.4935 21.524V15.08H62.2355V16.556C62.2355 18.956 61.8935 20.624 61.2095 21.56L65.4935 21.524ZM70.7245 23C70.6045 23 70.5025 22.964 70.4185 22.892C70.3465 22.808 70.3105 22.706 70.3105 22.586V14.054C70.3105 13.934 70.3465 13.838 70.4185 13.766C70.5025 13.682 70.6045 13.64 70.7245 13.64H77.8705C77.9905 13.64 78.0865 13.682 78.1585 13.766C78.2425 13.838 78.2845 13.934 78.2845 14.054V22.586C78.2845 22.706 78.2425 22.808 78.1585 22.892C78.0865 22.964 77.9905 23 77.8705 23H77.0065C76.8865 23 76.7905 22.964 76.7185 22.892C76.6465 22.808 76.6105 22.706 76.6105 22.586V15.08H72.0025V22.586C72.0025 22.706 71.9605 22.808 71.8765 22.892C71.8045 22.964 71.7085 23 71.5885 23H70.7245ZM88.9189 13.64C89.0149 13.64 89.0989 13.676 89.1709 13.748C89.2549 13.82 89.2969 13.904 89.2969 14V22.586C89.2969 22.706 89.2549 22.808 89.1709 22.892C89.0989 22.964 89.0029 23 88.8829 23H88.0369C87.9169 23 87.8149 22.964 87.7309 22.892C87.6589 22.808 87.6229 22.706 87.6229 22.586V16.052L82.6369 22.73C82.5049 22.91 82.3489 23 82.1689 23H81.3589C81.2509 23 81.1549 22.964 81.0709 22.892C80.9989 22.808 80.9629 22.718 80.9629 22.622V14.054C80.9629 13.934 80.9989 13.838 81.0709 13.766C81.1549 13.682 81.2569 13.64 81.3769 13.64H82.2409C82.3609 13.64 82.4569 13.682 82.5289 13.766C82.6129 13.838 82.6549 13.934 82.6549 14.054V20.552L87.6229 13.91C87.7549 13.73 87.9109 13.64 88.0909 13.64H88.9189ZM95.7116 23.18C94.4276 23.18 93.4196 22.82 92.6876 22.1C91.9676 21.368 91.5836 20.348 91.5356 19.04L91.5176 18.32L91.5356 17.6C91.5836 16.292 91.9676 15.278 92.6876 14.558C93.4196 13.826 94.4276 13.46 95.7116 13.46C96.5756 13.46 97.3076 13.616 97.9076 13.928C98.5076 14.24 98.9516 14.624 99.2396 15.08C99.5396 15.536 99.7016 15.992 99.7256 16.448C99.7376 16.568 99.7016 16.664 99.6176 16.736C99.5336 16.808 99.4316 16.844 99.3116 16.844H98.4476C98.3276 16.844 98.2376 16.82 98.1776 16.772C98.1176 16.724 98.0576 16.628 97.9976 16.484C97.7936 15.908 97.5056 15.5 97.1336 15.26C96.7616 15.008 96.2936 14.882 95.7296 14.882C94.9856 14.882 94.3916 15.116 93.9476 15.584C93.5156 16.04 93.2816 16.742 93.2456 17.69L93.2276 18.338L93.2456 18.95C93.2816 19.91 93.5156 20.618 93.9476 21.074C94.3796 21.53 94.9736 21.758 95.7296 21.758C96.2936 21.758 96.7616 21.638 97.1336 21.398C97.5056 21.146 97.7936 20.732 97.9976 20.156C98.0576 20.012 98.1176 19.916 98.1776 19.868C98.2376 19.808 98.3276 19.778 98.4476 19.778H99.3116C99.4316 19.778 99.5336 19.82 99.6176 19.904C99.7016 19.976 99.7376 20.072 99.7256 20.192C99.7016 20.636 99.5396 21.092 99.2396 21.56C98.9516 22.016 98.5076 22.4 97.9076 22.712C97.3196 23.024 96.5876 23.18 95.7116 23.18ZM104.473 23.18C103.885 23.18 103.339 23.06 102.835 22.82C102.331 22.58 101.929 22.256 101.629 21.848C101.341 21.428 101.197 20.966 101.197 20.462C101.197 19.67 101.521 19.022 102.169 18.518C102.829 18.002 103.717 17.666 104.833 17.51L107.515 17.132V16.61C107.515 15.386 106.813 14.774 105.409 14.774C104.881 14.774 104.449 14.888 104.113 15.116C103.777 15.332 103.525 15.59 103.357 15.89C103.321 15.998 103.273 16.076 103.213 16.124C103.165 16.172 103.093 16.196 102.997 16.196H102.223C102.115 16.196 102.019 16.16 101.935 16.088C101.863 16.004 101.827 15.908 101.827 15.8C101.839 15.512 101.971 15.188 102.223 14.828C102.487 14.456 102.889 14.138 103.429 13.874C103.969 13.598 104.635 13.46 105.427 13.46C106.771 13.46 107.737 13.778 108.325 14.414C108.913 15.038 109.207 15.818 109.207 16.754V22.586C109.207 22.706 109.165 22.808 109.081 22.892C109.009 22.964 108.913 23 108.793 23H107.965C107.845 23 107.743 22.964 107.659 22.892C107.587 22.808 107.551 22.706 107.551 22.586V21.812C107.287 22.196 106.903 22.52 106.399 22.784C105.895 23.048 105.253 23.18 104.473 23.18ZM104.851 21.83C105.631 21.83 106.267 21.578 106.759 21.074C107.263 20.558 107.515 19.82 107.515 18.86V18.356L105.427 18.662C104.575 18.782 103.933 18.986 103.501 19.274C103.069 19.55 102.853 19.904 102.853 20.336C102.853 20.816 103.051 21.188 103.447 21.452C103.843 21.704 104.311 21.83 104.851 21.83ZM114.657 23C114.537 23 114.435 22.964 114.351 22.892C114.279 22.808 114.243 22.706 114.243 22.586V15.08H111.111C110.991 15.08 110.889 15.044 110.805 14.972C110.733 14.888 110.697 14.786 110.697 14.666V14.054C110.697 13.934 110.733 13.838 110.805 13.766C110.889 13.682 110.991 13.64 111.111 13.64H119.031C119.151 13.64 119.247 13.682 119.319 13.766C119.403 13.838 119.445 13.934 119.445 14.054V14.666C119.445 14.786 119.403 14.888 119.319 14.972C119.247 15.044 119.151 15.08 119.031 15.08H115.899V22.586C115.899 22.706 115.863 22.808 115.791 22.892C115.719 22.964 115.623 23 115.503 23H114.657ZM124.786 23.18C123.502 23.18 122.494 22.82 121.762 22.1C121.042 21.368 120.658 20.348 120.61 19.04L120.592 18.32L120.61 17.6C120.658 16.292 121.042 15.278 121.762 14.558C122.494 13.826 123.502 13.46 124.786 13.46C125.65 13.46 126.382 13.616 126.982 13.928C127.582 14.24 128.026 14.624 128.314 15.08C128.614 15.536 128.776 15.992 128.8 16.448C128.812 16.568 128.776 16.664 128.692 16.736C128.608 16.808 128.506 16.844 128.386 16.844H127.522C127.402 16.844 127.312 16.82 127.252 16.772C127.192 16.724 127.132 16.628 127.072 16.484C126.868 15.908 126.58 15.5 126.208 15.26C125.836 15.008 125.368 14.882 124.804 14.882C124.06 14.882 123.466 15.116 123.022 15.584C122.59 16.04 122.356 16.742 122.32 17.69L122.302 18.338L122.32 18.95C122.356 19.91 122.59 20.618 123.022 21.074C123.454 21.53 124.048 21.758 124.804 21.758C125.368 21.758 125.836 21.638 126.208 21.398C126.58 21.146 126.868 20.732 127.072 20.156C127.132 20.012 127.192 19.916 127.252 19.868C127.312 19.808 127.402 19.778 127.522 19.778H128.386C128.506 19.778 128.608 19.82 128.692 19.904C128.776 19.976 128.812 20.072 128.8 20.192C128.776 20.636 128.614 21.092 128.314 21.56C128.026 22.016 127.582 22.4 126.982 22.712C126.394 23.024 125.662 23.18 124.786 23.18ZM137.633 13.64C137.753 13.64 137.849 13.682 137.921 13.766C138.005 13.838 138.047 13.934 138.047 14.054V22.586C138.047 22.706 138.005 22.808 137.921 22.892C137.849 22.964 137.753 23 137.633 23H136.769C136.649 23 136.547 22.964 136.463 22.892C136.391 22.808 136.355 22.706 136.355 22.586V19.652H134.429L132.395 22.73C132.347 22.802 132.281 22.868 132.197 22.928C132.113 22.976 132.023 23 131.927 23H131.063C130.955 23 130.865 22.964 130.793 22.892C130.721 22.82 130.685 22.736 130.685 22.64C130.685 22.52 130.727 22.412 130.811 22.316L132.827 19.346C132.203 19.13 131.735 18.788 131.423 18.32C131.111 17.84 130.955 17.264 130.955 16.592C130.955 15.584 131.249 14.84 131.837 14.36C132.437 13.88 133.337 13.64 134.537 13.64H137.633ZM136.373 14.99H134.483C133.799 14.99 133.301 15.11 132.989 15.35C132.677 15.59 132.521 16.004 132.521 16.592C132.521 17.108 132.671 17.522 132.971 17.834C133.283 18.146 133.739 18.302 134.339 18.302H136.373V14.99Z" fill="white"/>
<path d="M19 7.3125C13.6481 7.3125 9.3125 11.6487 9.3125 17C9.3125 22.3512 13.6487 26.6875 19 26.6875C24.3519 26.6875 28.6875 22.3512 28.6875 17C28.6875 11.6487 24.3512 7.3125 19 7.3125ZM23.7581 13.9494L22.1681 21.4419C22.0506 21.9731 21.7344 22.1019 21.2931 21.8519L18.8713 20.0669L17.7031 21.1919C17.5744 21.3206 17.465 21.43 17.215 21.43L17.3869 18.965L21.875 14.91C22.0706 14.7381 21.8319 14.6406 21.5737 14.8125L16.0269 18.3044L13.6363 17.5581C13.1169 17.3944 13.105 17.0387 13.7456 16.7887L23.0856 13.1869C23.5194 13.0306 23.8981 13.2925 23.7575 13.9488L23.7581 13.9494Z" fill="white"/>
</svg>
